<svg xmlns="http://www.w3.org/2000/svg" xmlns:xlink="http://www.w3.org/1999/xlink" width="397" zoomAndPan="magnify" viewBox="0 0 297.75 419.249996" height="559" preserveAspectRatio="xMidYMid meet" version="1.0"><defs><clipPath id="13b4cc5ce0"><path d="M 0.214844 53 L 119.171875 53 L 119.171875 111.910156 L 0.214844 111.910156 Z M 0.214844 53 " clip-rule="nonzero"/></clipPath><clipPath id="bc06f82070"><path d="M 0.214844 52 L 118 52 L 118 110 L 0.214844 110 Z M 0.214844 52 " clip-rule="nonzero"/></clipPath><clipPath id="2ad13d8f55"><path d="M 0.214844 88 L 117 88 L 117 110 L 0.214844 110 Z M 0.214844 88 " clip-rule="nonzero"/></clipPath><clipPath id="fd3e7e322e"><path d="M 0.214844 78 L 117 78 L 117 93 L 0.214844 93 Z M 0.214844 78 " clip-rule="nonzero"/></clipPath><clipPath id="9caf39bbe7"><path d="M 0.214844 84 L 117 84 L 117 98 L 0.214844 98 Z M 0.214844 84 " clip-rule="nonzero"/></clipPath><clipPath id="9ca79e78a8"><path d="M 0.214844 92 L 118 92 L 118 105 L 0.214844 105 Z M 0.214844 92 " clip-rule="nonzero"/></clipPath><clipPath id="ab1a291db6"><rect x="0" width="120" y="0" height="113"/></clipPath></defs><g transform="matrix(1, 0, 0, 1, 89, 153)"><g clip-path="url(#ab1a291db6)"><path fill="#8b341a" d="M 54.375 3.171875 C 56.597656 0.445312 60.773438 0.445312 62.996094 3.171875 L 107.046875 57.242188 L 104.089844 59.636719 L 60.460938 6.085938 C 59.546875 4.964844 57.824219 4.964844 56.910156 6.085938 L 13.28125 59.636719 L 10.320312 57.242188 Z M 54.375 3.171875 " fill-opacity="1" fill-rule="evenodd"/><path fill="#6e210a" d="M 104.089844 57.46875 L 61.558594 5.265625 C 60.078125 3.445312 57.292969 3.445312 55.8125 5.265625 L 16.203125 53.878906 L 17.132812 54.910156 L 56.910156 6.085938 C 57.824219 4.964844 59.542969 4.964844 60.460938 6.085938 L 103.289062 58.65625 Z M 104.089844 57.46875 " fill-opacity="1" fill-rule="nonzero"/><g clip-path="url(#13b4cc5ce0)"><path fill="#8b341a" d="M 118.683594 111.222656 C 104.933594 110.550781 75.410156 110.425781 59.464844 111.222656 C 45.214844 111.933594 16.757812 111.328125 3.738281 110.386719 C 3.386719 110.035156 2.140625 108.792969 1.5625 108.214844 C 1.125 107.753906 0.5625 106.824219 0.5625 106.578125 C 1.289062 106.019531 2.738281 104.871094 2.738281 104.71875 C 2.71875 104.382812 2.695312 104.050781 2.675781 103.722656 C 2 103.273438 1.113281 102.8125 0.5625 102.546875 C 0.339844 99.164062 0.253906 96.164062 0.257812 93.511719 L 1.410156 92.523438 L 0.265625 92.152344 L 0.816406 77.820312 L 0.816406 77.117188 L 3.261719 77.117188 C 2.921875 76.886719 1.632812 76.085938 1.035156 75.710938 C 1.179688 73.769531 1.300781 69.785156 1.394531 64.242188 L 8.097656 63.339844 L 3.574219 62.625 L 1.394531 60.453125 L 3.609375 60.804688 L 14.351562 62.496094 L 8.097656 63.339844 L 16.527344 64.667969 L 3.574219 66.414062 C 3.5 70.699219 3.410156 74.054688 3.308594 76.253906 L 5.597656 76.796875 C 4.710938 77.113281 3.988281 77.347656 3.238281 77.503906 C 3.230469 77.636719 3.21875 77.765625 3.210938 77.882812 L 3.210938 78.636719 L 0.816406 77.820312 L 0.265625 92.152344 L 2.554688 92.894531 L 0.257812 93.511719 C 0.253906 96.164062 0.339844 99.164062 0.5625 102.546875 C 1.113281 102.8125 2 103.273438 2.675781 103.722656 C 3.167969 104.046875 3.546875 104.367188 3.609375 104.59375 C 3.644531 104.726562 3.554688 104.878906 3.386719 105.042969 C 2.671875 105.726562 0.5625 106.578125 0.5625 106.578125 C 0.5625 106.824219 1.125 107.753906 1.5625 108.214844 C 14.582031 109.15625 43.039062 109.761719 57.285156 109.050781 C 73.234375 108.253906 102.753906 108.378906 116.507812 109.050781 C 116.820312 106.378906 116.917969 102.636719 116.890625 98.558594 C 113.90625 98.242188 110.394531 97.546875 108.71875 97.171875 C 110.492188 97.523438 114.214844 97.199219 116.871094 96.867188 C 116.871094 96.761719 116.871094 96.652344 116.867188 96.546875 C 113.65625 96.449219 108.644531 95.472656 106.539062 95 C 108.777344 95.445312 114.117188 94.8125 116.507812 94.441406 C 116.347656 93.980469 116.09375 92.933594 115.863281 91.910156 C 115.695312 91.183594 115.542969 90.464844 115.441406 89.984375 L 112.5625 89.582031 L 103.4375 88.3125 L 116.53125 86.394531 C 116.378906 83.261719 116.203125 80.355469 116.039062 78.03125 L 110.394531 76.644531 L 114.683594 76.0625 L 108.21875 74.472656 L 115.699219 73.457031 C 115.613281 72.261719 115.523438 64.886719 115.441406 63.734375 L 108.21875 62.558594 L 115.296875 61.691406 C 115.0625 58.421875 114.859375 55.496094 114.71875 53.371094 L 116.894531 55.542969 C 117.039062 57.667969 117.238281 60.59375 117.472656 63.863281 C 117.554688 65.015625 117.789062 74.433594 117.878906 75.625 L 115.917969 75.894531 L 118.039062 77.441406 C 118.230469 79.960938 118.519531 84.628906 118.707031 88.566406 L 112.5625 89.582031 L 115.441406 89.984375 L 117.621094 92.15625 C 117.863281 93.3125 118.414062 95.820312 118.683594 96.613281 C 118.257812 96.679688 117.734375 96.753906 117.152344 96.832031 L 119.046875 98.71875 C 119.125 103.5625 119.046875 108.117188 118.683594 111.222656 Z M 118.683594 111.222656 " fill-opacity="1" fill-rule="nonzero"/></g><g clip-path="url(#bc06f82070)"><path fill="#d4782a" d="M 116.617188 109.050781 C 102.863281 108.378906 73.339844 108.253906 57.394531 109.050781 C 43.148438 109.761719 14.6875 109.15625 1.667969 108.214844 C 1.234375 107.753906 0.671875 106.824219 0.671875 106.578125 C 0.671875 106.578125 3.90625 105.277344 3.71875 104.59375 C 3.570312 104.050781 1.625 103.003906 0.671875 102.546875 C 0.445312 99.164062 0.363281 96.164062 0.367188 93.511719 L 2.664062 92.894531 L 0.375 92.152344 C 0.40625 89.417969 0.785156 79.710938 0.925781 77.726562 C 2.847656 77.726562 3.96875 77.417969 5.707031 76.796875 L 1.140625 75.710938 C 1.289062 73.769531 1.410156 69.785156 1.503906 64.242188 L 14.457031 62.496094 L 1.503906 60.453125 C 1.550781 57.089844 1.65625 55.703125 1.675781 53.371094 C 4.707031 52.828125 12.683594 51.804688 20.324219 52.082031 C 29.878906 52.421875 100.859375 53.371094 114.828125 53.371094 C 114.96875 55.496094 115.171875 58.421875 115.402344 61.691406 L 108.324219 62.558594 L 115.550781 63.734375 C 115.632812 64.886719 115.722656 72.261719 115.808594 73.453125 L 108.324219 74.472656 L 116.027344 76.363281 C 116.21875 78.886719 116.449219 82.457031 116.636719 86.394531 L 103.546875 88.3125 L 115.550781 89.984375 C 115.792969 91.140625 116.34375 93.648438 116.617188 94.441406 C 114.226562 94.8125 108.882812 95.445312 106.648438 95 C 108.753906 95.472656 113.765625 96.449219 116.976562 96.546875 C 117.054688 101.390625 116.980469 105.945312 116.617188 109.050781 Z M 116.617188 109.050781 " fill-opacity="1" fill-rule="nonzero"/></g><g clip-path="url(#2ad13d8f55)"><path fill="#c96c29" d="M 116.507812 109.050781 C 102.753906 108.378906 73.234375 108.253906 57.285156 109.050781 C 43.039062 109.761719 14.582031 109.15625 1.5625 108.214844 C 1.125 107.753906 0.5625 106.824219 0.5625 106.574219 C 0.5625 106.574219 3.796875 105.277344 3.609375 104.59375 C 3.460938 104.050781 1.515625 103.003906 0.5625 102.546875 C 0.339844 99.164062 0.253906 96.164062 0.257812 93.511719 L 2.554688 92.894531 L 0.265625 92.152344 C 0.277344 91.347656 0.316406 89.945312 0.367188 88.3125 C 15.582031 102.074219 63.1875 109.886719 111.53125 95.953125 C 109.523438 95.628906 107.636719 95.246094 106.539062 95 C 108.777344 95.445312 114.117188 94.8125 116.507812 94.441406 C 114.847656 94.972656 113.1875 95.476562 111.53125 95.953125 C 113.378906 96.25 115.328125 96.5 116.867188 96.546875 C 116.945312 101.390625 116.871094 105.945312 116.507812 109.050781 Z M 116.507812 109.050781 " fill-opacity="1" fill-rule="nonzero"/></g><path fill="#c36018" d="M 57.503906 100.390625 C 58.457031 100.246094 59.605469 100.074219 60.96875 99.714844 C 61.988281 99.449219 62.574219 98.894531 63.242188 98.265625 C 64.21875 97.34375 65.371094 96.253906 68.3125 95.648438 C 72.640625 94.761719 75.921875 95.535156 79.621094 96.410156 C 80.164062 96.539062 80.714844 96.667969 81.277344 96.796875 C 84.207031 97.457031 89.382812 97.785156 93.183594 98.023438 C 95.113281 98.144531 96.691406 98.242188 97.4375 98.351562 C 99.65625 98.679688 109.847656 100.574219 110.03125 102.714844 C 110.191406 104.570312 99.753906 105.347656 95.191406 105.6875 C 94.480469 105.738281 93.914062 105.78125 93.550781 105.816406 C 92.8125 105.886719 92.15625 105.878906 91.453125 105.875 C 89.589844 105.859375 87.394531 105.839844 82.414062 107.214844 C 76.570312 108.835938 73.625 108.386719 69.011719 107.683594 C 68.21875 107.5625 67.371094 107.433594 66.453125 107.308594 C 64.804688 107.078125 63.347656 106.933594 62.046875 106.804688 C 58.4375 106.445312 56.054688 106.207031 54.164062 104.644531 C 51.597656 102.519531 54.761719 100.890625 56.277344 100.59375 C 56.644531 100.523438 57.050781 100.460938 57.503906 100.390625 Z M 54.804688 102.628906 C 54.832031 101.886719 56.558594 100.84375 60.421875 100.539062 C 62.621094 100.367188 63.46875 99.511719 64.351562 98.625 C 65.410156 97.558594 66.515625 96.445312 70.046875 96.40625 C 76.527344 96.332031 81.722656 97.410156 84.441406 98.148438 C 85.964844 98.5625 88.804688 98.742188 92.195312 98.957031 C 94.871094 99.128906 97.882812 99.320312 100.863281 99.664062 C 107.625 100.445312 108.488281 102.414062 106.910156 103.054688 C 105.332031 103.695312 96.722656 105.480469 90.886719 104.929688 C 88.324219 104.6875 85.96875 105.277344 83.457031 105.90625 C 80.257812 106.710938 76.800781 107.578125 72.324219 106.867188 C 69.804688 106.464844 67.113281 106.398438 64.617188 106.335938 C 59.195312 106.203125 54.683594 106.09375 54.804688 102.628906 Z M 54.804688 102.628906 " fill-opacity="1" fill-rule="evenodd"/><g clip-path="url(#fd3e7e322e)"><path fill="#c36018" d="M 40.726562 84.457031 C 36.191406 82.550781 24.265625 83.554688 18.871094 84.292969 C 10.234375 85.414062 4.695312 85.011719 0.609375 84.589844 C 0.625 84.246094 0.636719 83.90625 0.652344 83.570312 C 0.691406 82.566406 0.730469 81.597656 0.769531 80.738281 C 0.78125 80.46875 0.792969 80.210938 0.804688 79.96875 C 5.835938 79.9375 10.703125 79.820312 13.75 79.546875 C 22.066406 78.792969 28.816406 78.429688 32.589844 78.660156 C 36.363281 78.890625 54.855469 81.921875 64.644531 82.011719 C 74.433594 82.105469 90.921875 80.246094 97.226562 80.714844 C 100.308594 80.941406 108.027344 82.1875 116.480469 83.332031 C 116.496094 83.625 116.511719 83.917969 116.527344 84.21875 C 113.917969 83.867188 111.542969 83.488281 109.628906 83.082031 C 99.652344 80.96875 72.476562 83.480469 65.949219 83.199219 C 53.429688 82.664062 36.210938 80.328125 31.355469 79.8125 C 23.96875 79.023438 12.957031 80.515625 0.769531 80.738281 C 0.730469 81.597656 0.691406 82.566406 0.652344 83.570312 C 1.210938 83.613281 1.78125 83.664062 2.363281 83.71875 C 13.515625 84.753906 18.667969 82.695312 24.433594 82.203125 C 30.203125 81.707031 37.15625 82.894531 39.726562 83.429688 C 42.296875 83.964844 46.859375 86.90625 46.464844 87.835938 C 44.851562 90.960938 24.234375 92.375 19.664062 92.664062 C 15.660156 92.917969 6.585938 92.304688 0.390625 91.242188 C 0.398438 90.878906 0.410156 90.464844 0.425781 90.011719 C 2.320312 90.300781 4.183594 90.640625 5.886719 91.042969 C 13.800781 92.90625 38.609375 90.144531 42.894531 89.101562 C 47.179688 88.058594 46.394531 86.839844 40.726562 84.457031 Z M 40.726562 84.457031 " fill-opacity="1" fill-rule="nonzero"/></g><path fill="#c36018" d="M 50.09375 75.894531 C 67.40625 78.582031 95.160156 77.613281 100.753906 77.65625 C 105.285156 77.695312 111.933594 77.707031 116.1875 78.597656 C 116.207031 78.898438 116.226562 79.207031 116.25 79.523438 C 114.9375 79.152344 113.59375 78.824219 111.652344 78.535156 C 103.964844 77.667969 90.816406 78.800781 82.320312 78.851562 C 73.820312 78.90625 61.96875 78.542969 51.957031 77.449219 C 41.945312 76.355469 31.867188 75.65625 28.242188 75.578125 C 21.9375 75.359375 13.035156 75.835938 4.101562 76.417969 L 1.804688 75.871094 L 2.078125 75.84375 C 9.960938 75.082031 18.828125 74.226562 27.671875 74.121094 C 37.046875 74.003906 43.738281 74.90625 50.09375 75.894531 Z M 50.09375 75.894531 " fill-opacity="1" fill-rule="nonzero"/><path fill="#c36018" d="M 49.042969 68.902344 C 63.808594 72.199219 88.765625 73.234375 99.402344 73.339844 C 102.394531 73.269531 105.820312 73.691406 109.488281 74.316406 L 108.324219 74.472656 L 113.792969 75.816406 C 108.367188 74.792969 103.234375 73.992188 99.375 74.132812 C 91.878906 74.40625 75.585938 73.394531 68.378906 73.054688 C 59.996094 72.761719 56.089844 70.414062 44.453125 69.835938 C 30.695312 69.152344 6.542969 72.339844 3.644531 72.238281 L 1.308594 72.3125 C 1.320312 72.066406 1.328125 71.808594 1.335938 71.546875 C 2.023438 71.476562 2.796875 71.394531 3.679688 71.296875 C 17.355469 69.789062 38.605469 66.652344 49.042969 68.902344 Z M 49.042969 68.902344 " fill-opacity="1" fill-rule="nonzero"/><path fill="#c36018" d="M 34.804688 64.1875 C 23.757812 64.496094 9.648438 65.097656 3.039062 64.421875 C 2.566406 64.371094 2.066406 64.308594 1.550781 64.234375 L 4.050781 63.898438 C 10.050781 64.414062 26.910156 63.6875 34.839844 63.242188 C 44.714844 62.296875 67.167969 66.207031 78.964844 66.617188 C 91.011719 66.691406 104.820312 66.328125 115.609375 65.371094 C 115.613281 65.523438 115.617188 65.683594 115.621094 65.847656 C 104.691406 67.058594 88.414062 68.199219 81.867188 68.058594 C 74.359375 67.898438 45.851562 63.875 34.804688 64.1875 Z M 34.804688 64.1875 " fill-opacity="1" fill-rule="nonzero"/><path fill="#c36018" d="M 44.804688 59.765625 C 24.929688 62.105469 15.421875 61.476562 4.082031 59.789062 C 3.207031 59.660156 2.351562 59.535156 1.519531 59.417969 L 1.542969 58.382812 C 2.785156 58.613281 3.867188 58.871094 4.726562 59.164062 C 11.535156 61.488281 34.957031 59.921875 46.195312 58.523438 C 57.433594 57.125 70.753906 62.953125 81.128906 62.570312 C 90.628906 62.113281 102.570312 61.9375 113.683594 61.902344 L 108.324219 62.558594 L 108.625 62.609375 C 95.996094 62.929688 83.636719 63.378906 79.082031 63.246094 C 69.40625 62.957031 57.441406 58.367188 44.804688 59.765625 Z M 44.804688 59.765625 " fill-opacity="1" fill-rule="nonzero"/><g clip-path="url(#9caf39bbe7)"><path fill="#c36018" d="M 37.53125 94.378906 C 22.027344 97.714844 12.324219 96.582031 3.226562 94.527344 C 2.289062 94.3125 1.332031 94.113281 0.375 93.929688 L 0.367188 94.539062 C 1.4375 94.765625 2.402344 94.992188 3.203125 95.222656 C 14.59375 98.449219 23.832031 97.976562 37.472656 95.964844 C 52.910156 93.078125 53.394531 92.546875 52.632812 89.144531 C 52.097656 86.742188 55.5 85.667969 61.453125 85.875 C 65.332031 86.011719 73.515625 89.078125 81.9375 89.765625 C 85.03125 90.019531 98.144531 92.914062 101.46875 92.730469 C 103.902344 92.597656 111.625 92.292969 116.171875 92.773438 L 116.058594 92.300781 C 114.636719 91.964844 107.28125 91.707031 103.683594 91.617188 C 91.492188 92.035156 87.714844 88.925781 81.980469 88.527344 C 76.242188 88.128906 68.84375 86.378906 63.339844 85.246094 C 57.835938 84.109375 51.320312 85.222656 51.539062 89.402344 C 51.753906 93.582031 46.300781 92.449219 37.53125 94.378906 Z M 37.53125 94.378906 " fill-opacity="1" fill-rule="nonzero"/></g><path fill="#c36018" d="M 88.183594 85.960938 C 88.480469 84.878906 102.222656 84.464844 105.066406 84.710938 C 107.414062 84.917969 110.234375 84.898438 116.617188 85.980469 L 116.625 86.152344 C 116.628906 86.234375 116.632812 86.3125 116.636719 86.394531 L 114.191406 86.753906 C 112.753906 86.523438 110.972656 86.269531 108.644531 86.027344 C 102.140625 85.355469 96.382812 85.550781 92.070312 85.898438 C 87.757812 86.246094 91.226562 86.316406 95.628906 87.859375 C 99.261719 89.132812 104.773438 89.253906 108.375 88.984375 L 115.550781 89.984375 L 115.570312 90.078125 C 113.945312 89.878906 112.203125 89.75 110.332031 89.664062 C 106.398438 89.476562 104.484375 90.898438 100.53125 89.917969 C 96.574219 88.933594 87.886719 87.042969 88.183594 85.960938 Z M 88.183594 85.960938 " fill-opacity="1" fill-rule="nonzero"/><g clip-path="url(#9ca79e78a8)"><path fill="#c36018" d="M 66.648438 92.859375 C 61.972656 93.769531 52.507812 97.183594 48.359375 98.78125 C 32.605469 105.976562 11.894531 102.824219 0.519531 99.894531 C 0.53125 100.15625 0.542969 100.421875 0.558594 100.691406 C 10.535156 103.40625 23.960938 104.804688 30.648438 104.46875 C 37.664062 104.117188 52.035156 98.882812 58.339844 96.308594 C 61.570312 95.449219 64.671875 94.597656 66.605469 94.050781 C 70.984375 93.289062 93.1875 93.945312 100.628906 95.980469 C 106.730469 97.648438 112.1875 98.90625 117.003906 99.839844 C 117.003906 99.546875 117.003906 99.253906 117 98.960938 C 108.445312 97.253906 102.144531 95.179688 100.363281 94.730469 C 97.179688 93.921875 72.492188 91.722656 66.648438 92.859375 Z M 66.648438 92.859375 " fill-opacity="1" fill-rule="nonzero"/></g><path fill="#c36018" d="M 32.890625 55.277344 C 28.941406 54.148438 12.765625 54.429688 4.859375 55.296875 C 3.84375 55.40625 2.753906 55.492188 1.628906 55.550781 L 1.671875 53.472656 C 7.980469 53.074219 17.621094 52.351562 32.910156 54.734375 C 49.757812 57.355469 58.769531 57.421875 66.425781 57.738281 C 74.042969 58.050781 107.714844 55.292969 115.050781 56.679688 L 115.125 57.792969 C 109.570312 56.707031 73.929688 58.046875 66.402344 58.433594 C 58.878906 58.816406 36.839844 56.410156 32.890625 55.277344 Z M 32.890625 55.277344 " fill-opacity="1" fill-rule="nonzero"/><path fill="#c36018" d="M 113.15625 73.816406 L 115.808594 73.453125 C 115.800781 73.332031 115.789062 73.140625 115.78125 72.894531 C 112.042969 72.113281 110.578125 72.136719 109.253906 71.644531 C 108.582031 71.398438 111.703125 71.222656 115.730469 71.035156 C 115.722656 70.75 115.714844 70.449219 115.710938 70.140625 C 112.507812 70.367188 109.785156 70.582031 108.660156 70.78125 C 106.039062 71.246094 107.117188 72.65625 113.15625 73.816406 Z M 113.15625 73.816406 " fill-opacity="1" fill-rule="nonzero"/></g></g></svg>